<svg viewBox="0 0 1024 1024" aria-hidden="true">
      <path d="M 262 112 H 686 V 338 H 912 V 762 A 150 150 0 0 1 762 912 H 262 A 150 150 0 0 1 112 762 V 262 A 150 150 0 0 1 262 112 Z" fill="#45215F"/>
      <path d="M 712 112 V 296 A 16 16 0 0 0 728 312 H 912 L 712 112 Z" fill="#45215F"/>
      <path fill-rule="evenodd" fill="#FFFFFF" d="M 149 362 H 271 A 100 99 0 0 1 271 560 H 221 V 662 H 149 Z M 221 424 H 266 A 37 37 0 0 1 266 498 H 221 Z"/>
      <path fill="#FFFFFF" d="M 675 362 H 875 V 426 H 747 V 478 H 857 V 540 H 747 V 662 H 675 Z"/>
      <g transform="translate(528.8 512) scale(0.87) translate(-532 -507)"><defs><clipPath id="gclip"><path d="M 448.3 377.4 Q 451.8 364.8 476.3 361.3 Q 500.8 357.8 525.3 363.4 Q 549.8 369.0 568.7 385.1 Q 587.6 401.2 598.1 425.0 Q 608.6 448.8 612.1 476.8 Q 615.6 504.8 612.8 534.2 Q 610.0 563.6 598.1 588.1 Q 586.2 612.6 566.6 630.8 Q 547.0 649.0 522.5 655.3 Q 498.0 661.6 475.6 658.8 Q 453.2 656.0 448.3 632.9 Q 443.4 609.8 440.6 580.4 Q 437.8 551.0 437.1 520.2 Q 436.4 489.4 437.8 458.6 Q 439.2 427.8 442.0 408.9 Q 444.8 390.0 448.3 377.4 Z"/></clipPath></defs><path d="M 409.0 326.0 Q 414.0 308.0 449.0 303.0 Q 484.0 298.0 519.0 306.0 Q 554.0 314.0 581.0 337.0 Q 608.0 360.0 623.0 394.0 Q 638.0 428.0 643.0 468.0 Q 648.0 508.0 644.0 550.0 Q 640.0 592.0 623.0 627.0 Q 606.0 662.0 578.0 688.0 Q 550.0 714.0 515.0 723.0 Q 480.0 732.0 448.0 728.0 Q 416.0 724.0 409.0 691.0 Q 402.0 658.0 398.0 616.0 Q 394.0 574.0 393.0 530.0 Q 392.0 486.0 394.0 442.0 Q 396.0 398.0 400.0 371.0 Q 404.0 344.0 409.0 326.0 Z" fill="#77757C"/><path d="M 421.0 318.0 Q 426.0 300.0 461.0 295.0 Q 496.0 290.0 531.0 298.0 Q 566.0 306.0 593.0 329.0 Q 620.0 352.0 635.0 386.0 Q 650.0 420.0 655.0 460.0 Q 660.0 500.0 656.0 542.0 Q 652.0 584.0 635.0 619.0 Q 618.0 654.0 590.0 680.0 Q 562.0 706.0 527.0 715.0 Q 492.0 724.0 460.0 720.0 Q 428.0 716.0 421.0 683.0 Q 414.0 650.0 410.0 608.0 Q 406.0 566.0 405.0 522.0 Q 404.0 478.0 406.0 434.0 Q 408.0 390.0 412.0 363.0 Q 416.0 336.0 421.0 318.0 Z" fill="#FFFFFF"/><path d="M 433.7 345.7 Q 438.0 330.2 468.1 325.9 Q 498.2 321.6 528.3 328.5 Q 558.4 335.4 581.7 355.2 Q 604.9 375.0 617.8 404.2 Q 630.7 433.4 635.0 467.8 Q 639.3 502.2 635.8 538.4 Q 632.4 574.5 617.8 604.6 Q 603.2 634.7 579.1 657.0 Q 555.0 679.4 524.9 687.1 Q 494.8 694.9 467.3 691.4 Q 439.8 688.0 433.7 659.6 Q 427.7 631.2 424.3 595.1 Q 420.8 559.0 420.0 521.2 Q 419.1 483.3 420.8 445.5 Q 422.6 407.6 426.0 384.4 Q 429.4 361.2 433.7 345.7 Z" fill="#6B6B72"/><path d="M 448.3 377.4 Q 451.8 364.8 476.3 361.3 Q 500.8 357.8 525.3 363.4 Q 549.8 369.0 568.7 385.1 Q 587.6 401.2 598.1 425.0 Q 608.6 448.8 612.1 476.8 Q 615.6 504.8 612.8 534.2 Q 610.0 563.6 598.1 588.1 Q 586.2 612.6 566.6 630.8 Q 547.0 649.0 522.5 655.3 Q 498.0 661.6 475.6 658.8 Q 453.2 656.0 448.3 632.9 Q 443.4 609.8 440.6 580.4 Q 437.8 551.0 437.1 520.2 Q 436.4 489.4 437.8 458.6 Q 439.2 427.8 442.0 408.9 Q 444.8 390.0 448.3 377.4 Z" fill="#B48CDB"/><g clip-path="url(#gclip)"><polygon points="451.8,364.8 500.8,357.8 484.9,438.4" fill="#9A5FCB"/><polygon points="500.8,357.8 491.6,471.9 484.9,438.4" fill="#AD7EDC"/><polygon points="500.8,357.8 549.8,369.0 491.6,471.9" fill="#C4A0E8"/><polygon points="549.8,369.0 529.0,441.5 491.6,471.9" fill="#8A4CBB"/><polygon points="549.8,369.0 587.6,401.2 529.0,441.5" fill="#7B3BA8"/><polygon points="587.6,401.2 521.7,488.4 529.0,441.5" fill="#D3B5F0"/><polygon points="587.6,401.2 608.6,448.8 521.7,488.4" fill="#C4A0E8"/><polygon points="608.6,448.8 567.4,476.0 521.7,488.4" fill="#9A5FCB"/><polygon points="608.6,448.8 615.6,504.8 567.4,476.0" fill="#8A4CBB"/><polygon points="615.6,504.8 541.2,523.2 567.4,476.0" fill="#7B3BA8"/><polygon points="615.6,504.8 610.0,563.6 541.2,523.2" fill="#D3B5F0"/><polygon points="610.0,563.6 556.5,534.2 541.2,523.2" fill="#AD7EDC"/><polygon points="610.0,563.6 586.2,612.6 556.5,534.2" fill="#9A5FCB"/><polygon points="586.2,612.6 516.6,551.9 556.5,534.2" fill="#7B3BA8"/><polygon points="586.2,612.6 547.0,649.0 516.6,551.9" fill="#8A4CBB"/><polygon points="547.0,649.0 528.5,576.5 516.6,551.9" fill="#C4A0E8"/><polygon points="547.0,649.0 498.0,661.6 528.5,576.5" fill="#D3B5F0"/><polygon points="498.0,661.6 493.6,576.0 528.5,576.5" fill="#9A5FCB"/><polygon points="498.0,661.6 453.2,656.0 493.6,576.0" fill="#AD7EDC"/><polygon points="453.2,656.0 490.5,571.1 493.6,576.0" fill="#7B3BA8"/><polygon points="453.2,656.0 443.4,609.8 490.5,571.1" fill="#C4A0E8"/><polygon points="443.4,609.8 478.2,556.7 490.5,571.1" fill="#8A4CBB"/><polygon points="443.4,609.8 437.8,551.0 478.2,556.7" fill="#9A5FCB"/><polygon points="437.8,551.0 477.2,524.9 478.2,556.7" fill="#D3B5F0"/><polygon points="437.8,551.0 436.4,489.4 477.2,524.9" fill="#7B3BA8"/><polygon points="436.4,489.4 467.8,512.8 477.2,524.9" fill="#AD7EDC"/><polygon points="436.4,489.4 439.2,427.8 467.8,512.8" fill="#C4A0E8"/><polygon points="439.2,427.8 485.0,481.7 467.8,512.8" fill="#8A4CBB"/><polygon points="439.2,427.8 444.8,390.0 485.0,481.7" fill="#9A5FCB"/><polygon points="444.8,390.0 469.1,468.9 485.0,481.7" fill="#AD7EDC"/><polygon points="444.8,390.0 451.8,364.8 469.1,468.9" fill="#C4A0E8"/><polygon points="451.8,364.8 484.9,438.4 469.1,468.9" fill="#8A4CBB"/><polygon points="484.9,438.4 491.6,471.9 529.0,441.5 521.7,488.4 567.4,476.0 541.2,523.2 556.5,534.2 516.6,551.9 528.5,576.5 493.6,576.0 490.5,571.1 478.2,556.7 477.2,524.9 467.8,512.8 485.0,481.7 469.1,468.9" fill="#5E2387"/><polygon points="464.0,468.0 520.0,450.0 510.0,514.0" fill="#8A4CBB"/><polygon points="510.0,514.0 546.0,492.0 538.0,566.0" fill="#7B3BA8"/><polygon points="472.0,528.0 510.0,514.0 496.0,578.0" fill="#9A5FCB"/><polygon points="496.0,578.0 510.0,514.0 538.0,566.0" fill="#3F1663"/></g></g>
    </svg>